<svg width="68" height="80" viewBox="0 0 68 80" fill="none" xmlns="http://www.w3.org/2000/svg">
<path d="M41.63 26.5L30.36 20.0367C29.7502 19.6845 29.058 19.5 28.3538 19.502C27.6496 19.5039 26.9584 19.6922 26.3506 20.0477C25.7427 20.4032 25.2397 20.9132 24.8927 21.526C24.5457 22.1388 24.3671 22.8325 24.375 23.5367V36.51C24.375 37.5682 24.7954 38.5831 25.5437 39.3313C26.2919 40.0796 27.3068 40.5 28.365 40.5C29.0655 40.4988 29.7534 40.3137 30.36 39.9633L41.63 33.5C42.2356 33.1495 42.7383 32.646 43.0879 32.0398C43.4374 31.4337 43.6214 30.7463 43.6214 30.0467C43.6214 29.347 43.4374 28.6596 43.0879 28.0535C42.7383 27.4474 42.2356 26.9438 41.63 26.5933V26.5ZM40.4633 31.3883L29.1933 37.945C28.9407 38.0881 28.6554 38.1634 28.365 38.1634C28.0747 38.1634 27.7893 38.0881 27.5367 37.945C27.2848 37.7996 27.0756 37.5904 26.9302 37.3385C26.7848 37.0866 26.7083 36.8008 26.7083 36.51V23.49C26.7083 23.1991 26.7848 22.9134 26.9302 22.6615C27.0756 22.4096 27.2848 22.2004 27.5367 22.055C27.7903 21.914 28.0749 21.8379 28.365 21.8333C28.655 21.8393 28.9392 21.9153 29.1933 22.055L40.4633 28.565C40.7153 28.7104 40.9246 28.9195 41.0701 29.1714C41.2156 29.4233 41.2922 29.7091 41.2922 30C41.2922 30.2909 41.2156 30.5767 41.0701 30.8286C40.9246 31.0805 40.7153 31.2896 40.4633 31.435V31.3883Z" fill="#364153"/>
<path d="M15.2823 60V51.6H18.1263C18.7903 51.6 19.3343 51.712 19.7583 51.936C20.1823 52.16 20.4943 52.46 20.6943 52.836C20.9023 53.204 21.0063 53.624 21.0063 54.096C21.0063 54.544 20.9023 54.96 20.6943 55.344C20.4943 55.72 20.1783 56.024 19.7463 56.256C19.3143 56.48 18.7623 56.592 18.0903 56.592H16.4823V60H15.2823ZM19.6983 60L17.8863 56.268H19.2063L21.0903 60H19.6983ZM16.4823 55.68H18.0423C18.6343 55.68 19.0703 55.536 19.3503 55.248C19.6303 54.952 19.7703 54.576 19.7703 54.12C19.7703 53.656 19.6343 53.288 19.3623 53.016C19.0903 52.744 18.6503 52.608 18.0423 52.608H16.4823V55.68ZM24.8723 60.144C24.2963 60.144 23.7843 60.012 23.3363 59.748C22.8883 59.484 22.5363 59.116 22.2803 58.644C22.0323 58.172 21.9083 57.624 21.9083 57C21.9083 56.36 22.0323 55.804 22.2803 55.332C22.5363 54.852 22.8883 54.48 23.3363 54.216C23.7843 53.944 24.3043 53.808 24.8963 53.808C25.4883 53.808 25.9963 53.94 26.4203 54.204C26.8443 54.468 27.1723 54.82 27.4043 55.26C27.6363 55.692 27.7523 56.172 27.7523 56.7C27.7523 56.78 27.7483 56.868 27.7403 56.964C27.7403 57.052 27.7363 57.152 27.7283 57.264H22.7843V56.412H26.5523C26.5283 55.908 26.3603 55.516 26.0483 55.236C25.7363 54.948 25.3483 54.804 24.8843 54.804C24.5563 54.804 24.2563 54.88 23.9843 55.032C23.7123 55.176 23.4923 55.392 23.3243 55.68C23.1643 55.96 23.0843 56.316 23.0843 56.748V57.084C23.0843 57.532 23.1643 57.912 23.3243 58.224C23.4923 58.528 23.7123 58.76 23.9843 58.92C24.2563 59.072 24.5523 59.148 24.8723 59.148C25.2563 59.148 25.5723 59.064 25.8203 58.896C26.0683 58.728 26.2523 58.5 26.3723 58.212H27.5723C27.4683 58.58 27.2923 58.912 27.0443 59.208C26.7963 59.496 26.4883 59.724 26.1203 59.892C25.7603 60.06 25.3443 60.144 24.8723 60.144ZM30.5672 60L28.2992 53.952H29.5592L31.2752 58.848L33.0032 53.952H34.2392L31.9832 60H30.5672ZM35.4039 60V53.952H36.6039V60H35.4039ZM36.0159 52.812C35.7839 52.812 35.5919 52.74 35.4399 52.596C35.2959 52.452 35.2239 52.268 35.2239 52.044C35.2239 51.828 35.2959 51.652 35.4399 51.516C35.5919 51.372 35.7839 51.3 36.0159 51.3C36.2399 51.3 36.4279 51.372 36.5799 51.516C36.7319 51.652 36.8079 51.828 36.8079 52.044C36.8079 52.268 36.7319 52.452 36.5799 52.596C36.4279 52.74 36.2399 52.812 36.0159 52.812ZM41.0559 60.144C40.4799 60.144 39.9679 60.012 39.5199 59.748C39.0719 59.484 38.7199 59.116 38.4639 58.644C38.2159 58.172 38.0919 57.624 38.0919 57C38.0919 56.36 38.2159 55.804 38.4639 55.332C38.7199 54.852 39.0719 54.48 39.5199 54.216C39.9679 53.944 40.4879 53.808 41.0799 53.808C41.6719 53.808 42.1799 53.94 42.6039 54.204C43.0279 54.468 43.3559 54.82 43.5879 55.26C43.8199 55.692 43.9359 56.172 43.9359 56.7C43.9359 56.78 43.9319 56.868 43.9239 56.964C43.9239 57.052 43.9199 57.152 43.9119 57.264H38.9679V56.412H42.7359C42.7119 55.908 42.5439 55.516 42.2319 55.236C41.9199 54.948 41.5319 54.804 41.0679 54.804C40.7399 54.804 40.4399 54.88 40.1679 55.032C39.8959 55.176 39.6759 55.392 39.5079 55.68C39.3479 55.96 39.2679 56.316 39.2679 56.748V57.084C39.2679 57.532 39.3479 57.912 39.5079 58.224C39.6759 58.528 39.8959 58.76 40.1679 58.92C40.4399 59.072 40.7359 59.148 41.0559 59.148C41.4399 59.148 41.7559 59.064 42.0039 58.896C42.2519 58.728 42.4359 58.5 42.5559 58.212H43.7559C43.6519 58.58 43.4759 58.912 43.2279 59.208C42.9799 59.496 42.6719 59.724 42.3039 59.892C41.9439 60.06 41.5279 60.144 41.0559 60.144ZM46.2588 60L44.4828 53.952H45.6708L46.9908 58.992L46.7628 58.98L48.2268 53.952H49.5708L51.0348 58.98L50.8068 58.992L52.1148 53.952H53.3268L51.5508 60H50.3148L48.7788 54.756H49.0188L47.4828 60H46.2588Z" fill="#364153"/>
</svg>
