<svg width="156" height="218" viewBox="0 0 156 218" fill="none" xmlns="http://www.w3.org/2000/svg">
<path fill-rule="evenodd" clip-rule="evenodd" d="M-45.7733 40.8978C-50.9236 36.7311 -52.1681 37.1629 -56.5783 39.6502C-66.8413 45.1647 -77.0226 52.9025 -86.1171 61.5942C-63.5766 60.2008 -40.9043 58.8797 -18.1887 57.2157C-27.5862 52.6006 -36.169 47.6325 -45.7733 40.8978ZM-325.253 50.5156C-325.334 47.7747 -328.252 28.5727 -322.523 33.5267C-319.559 31.8208 -316.378 36.1587 -313.658 38.8034C-311.126 41.2783 -308.351 43.707 -305.174 46.2268C-302.227 48.5739 -298.76 51.2142 -294.883 52.8601C-294.262 53.2333 -293.812 53.6191 -293.546 54.0079L-293.392 54.2321L-293.168 54.3669C-290.796 55.7896 -288.382 56.9473 -285.985 58.231C-285.276 54.8459 -284.526 51.7663 -283.441 47.9216C-254.052 52.1916 -225.089 59.1547 -195.635 63.2562C-170.164 65.4708 -144.629 66.2167 -119.059 72.5067L-119.015 73.432L-117.335 73.8857C-117.406 73.1275 -117.54 71.5909 -117.603 70.83L-118.411 71.0389C-118.453 67.5866 -117.955 64.1835 -117.59 60.8122C-117.578 59.0982 -116.665 57.3461 -114.734 57.8906C-112.015 57.9874 -109.314 58.4995 -106.585 58.686C-106.034 57.5727 -105.392 56.4215 -104.725 55.3168C-106.285 52.5198 -110.646 49.2316 -110.007 46.0855C-101.954 38.4883 -91.963 31.9916 -84.0576 26.1549C-65.8422 12.0905 -53.9723 7.39906 -31.7177 20.3716C-13.0305 31.6078 15.9546 43.3985 23.1033 67.0562C23.8751 69.7134 24.225 72.515 25.6417 75.0435C27.2537 75.1157 28.2738 75.9544 28.3622 76.5929C28.8568 78.1335 29.5588 79.819 29.7504 81.3342C30.0174 81.8609 29.9268 82.5195 29.8953 83.0362C32.8773 84.4592 36.4381 84.189 39.2621 85.7649C41.2593 85.7513 43.5362 86.333 44.7283 93.0298C45.6159 97.5856 46.7153 104.044 45.322 107.764C43.7437 110.39 39.5354 110.573 36.5302 110.364C34.3093 110.093 31.7933 110.345 29.4542 112.309C31.5839 117.576 28.848 121.406 23.3198 124.96C23.2305 138.974 22.5999 142.019 10.6126 147.902C5.44184 150.688 -0.0907369 153.594 -5.8474 155.83C-12.8572 158.798 -20.4996 159.321 -27.57 162.217C-42.9946 169.939 -52.6369 177.566 -71.3026 180.552C-79.5314 181.976 -83.7524 181.492 -85.1329 180.482C-84.6934 177.445 -84.5427 173.544 -84.5769 170.373L-86.5266 173.84C-98.7275 171.42 -131.585 180.93 -131.625 158.474C-131.207 158.259 -128.735 158.533 -127.716 158.591C-127.827 157.981 -127.997 156.852 -127.999 156.248C-130.937 155.286 -133.652 153.78 -136.631 152.876C-138.432 152.441 -140.261 151.875 -142.029 151.321C-187.024 138.859 -229.071 137.629 -271.834 145.538L-271.962 145.257L-272.163 145.149L-272.242 144.979C-272.836 144.555 -272.933 143.928 -273.053 142.925C-273.977 136.773 -274.87 131.371 -275.59 126.358C-277.962 126.981 -280.566 126.736 -283.071 126.594C-282.539 129.507 -283.306 132.228 -284.292 134.946C-285.978 140.133 -287.782 145.303 -289.827 150.341C-292.116 155.352 -293.632 163.374 -299.251 159.629L-299.525 160.783C-299.534 160.822 -299.543 160.846 -299.55 160.861C-299.972 161.012 -301.965 159.538 -302 159.08C-303.732 148.313 -302.517 139.03 -301.733 125.146C-301.059 121.949 -301.156 105.975 -298.415 105.806C-297.553 105.824 -297.496 106.796 -297.309 107.467C-288.197 105.092 -286.634 111.914 -278.033 112.578C-278.429 111.23 -278.804 109.771 -278.62 108.369C-260.656 106.474 -241.888 107.74 -223.859 104.891L-223.896 102.681C-244.666 96.0237 -265.93 89.1104 -287.292 83.9891C-287.754 83.8935 -287.512 83.3314 -287.378 83.0735C-287.749 79.2184 -287.828 75.3512 -287.681 71.5519C-289.724 71.5371 -291.806 71.519 -293.848 71.5012L-294.065 72.094C-294.498 72.4873 -296.752 72.4128 -297.722 72.3807C-298.714 72.3489 -299.432 72.3188 -300.089 72.439C-302.134 73.7356 -307.367 69.7589 -310.263 67.6604C-316.489 63.0852 -325.341 59.4333 -325.253 50.5156Z" fill="white"/>
<path fill-rule="evenodd" clip-rule="evenodd" d="M-112.712 69.9291C-112.74 69.4268 -112.787 68.825 -112.838 68.1592C-113.114 64.6069 -113.484 59.3069 -112.075 57.336C-112.053 57.306 -112.031 57.2763 -112.008 57.247C-111.973 57.2417 -111.939 57.2367 -111.904 57.2318C-110.237 56.9973 -108.482 57.2372 -106.738 57.4792C-105.851 57.6023 -104.966 57.7252 -104.098 57.7816C-103.934 57.7923 -103.769 57.8007 -103.604 57.8074C-103.681 57.9548 -103.756 58.1052 -103.831 58.2588C-106.578 63.9026 -105.483 68.4755 -104.37 73.1823C-103.614 76.381 -102.849 79.6416 -103.193 83.3253C-103.292 84.3532 -103.563 85.4539 -103.842 86.5814C-104.462 89.087 -105.163 91.7469 -103.822 93.9965C-103.332 94.5484 -102.898 94.8796 -102.505 95.0254C-102.109 95.1725 -101.767 95.1153 -101.469 94.9217C-100.506 94.2966 -99.9687 92.4345 -99.6008 91.0005L-99.5619 90.8477L-98.9043 88.2128C-98.8949 89.0435 -98.8927 89.8701 -98.9186 90.6855C-98.9531 91.7721 -99.0386 92.8644 -99.1244 93.9597C-99.3093 96.3196 -99.4982 98.6936 -99.1618 101.055C-99.0788 101.271 -98.9664 101.434 -98.8299 101.548C-98.6693 101.682 -98.479 101.748 -98.2795 101.77C-97.6866 101.834 -97.016 101.53 -96.6097 101.188C-95.4934 100.27 -94.8975 98.8988 -94.6214 97.4277L-94.0516 97.5332C-94.03 98.0704 -94.0645 98.6168 -94.0999 99.1647C-94.1515 99.9666 -94.2074 100.772 -94.06 101.556C-93.839 102.019 -93.5985 102.317 -93.3354 102.467C-93.0525 102.629 -92.7549 102.604 -92.463 102.482C-91.4601 102.064 -90.5077 100.557 -90.1259 99.6203C-88.5888 96.3923 -88.0931 92.7249 -87.5951 89.0748C-87.296 86.883 -86.997 84.6967 -86.4829 82.6141C-86.4463 82.4659 -86.4086 82.3181 -86.3698 82.1707C-86.2424 82.2778 -86.1229 82.3906 -86.0121 82.5094C-84.7057 83.9105 -84.1674 86.6242 -83.6555 89.35C-83.2661 91.4236 -82.8851 93.4961 -82.1104 94.9132C-81.5946 95.8567 -80.8964 96.4965 -79.8678 96.5816C-79.2637 96.4862 -78.8008 96.2583 -78.4544 95.9258C-78.0628 95.5501 -77.8216 95.0435 -77.6829 94.4618C-77.276 92.7545 -77.732 90.4211 -78.1208 88.587L-78.2905 87.7919L-78.3498 87.5099C-80.0164 80.1132 -83.4059 72.9777 -88.0155 66.9769C-88.0746 66.9 -88.1339 66.8232 -88.1927 66.7466C-88.1323 66.6832 -88.0719 66.6198 -88.0114 66.5565C-86.1107 64.5659 -84.1705 62.6176 -82.1869 60.7211C-82.165 60.7002 -82.1431 60.6792 -82.1203 60.6584C-82.0904 60.6563 -82.0606 60.6542 -82.0308 60.6522C-74.8403 60.1533 -67.6053 59.7603 -60.3653 59.367C-46.2637 58.6009 -32.143 57.834 -18.2958 56.2814L-17.6941 56.5612C-17.2669 56.7594 -16.8761 56.9407 -16.5213 57.105C-16.6411 57.0352 -16.7648 56.9634 -16.8924 56.8896L-17.6104 56.4758L-18.6512 55.8807L-18.4186 55.8637C-18.4256 55.8602 -18.4325 55.8568 -18.4395 55.8533C-18.4382 55.809 -18.4437 55.7628 -18.4573 55.7148C-18.4997 55.5645 -18.6024 55.4637 -18.726 55.402C-18.9066 55.3119 -19.1288 55.2966 -19.3365 55.3404C-19.3656 55.3465 -19.3943 55.3538 -19.4225 55.3622C-19.4539 55.3465 -19.4853 55.3307 -19.5167 55.315C-19.7052 55.2203 -19.8935 55.1252 -20.0815 55.0299C-26.4022 51.3067 -32.6349 47.4063 -38.7112 43.2175C-39.8139 42.5946 -41.0686 41.6146 -42.3834 40.5857C-45.073 38.4808 -48.0287 36.1116 -50.4189 36.4767C-64.7536 42.6126 -77.0311 53.1107 -88.0826 64.3105C-88.1325 64.3611 -88.1825 64.4118 -88.2335 64.46C-88.2964 64.4185 -88.3593 64.377 -88.4221 64.3353C-94.3361 60.408 -99.612 55.2106 -103.757 49.1441C-103.895 48.9252 -104.054 48.7051 -104.218 48.4774C-104.663 47.8597 -105.131 47.1886 -105.27 46.5626C-105.386 46.0435 -105.306 45.5442 -104.858 45.1071C-92.8483 35.3353 -80.4013 26.0662 -67.3057 17.9862C-57.0932 11.0247 -44.0909 13.6733 -32.9764 19.8204L-31.9672 20.3547C-31.1843 20.7688 -30.3995 21.1831 -29.6134 21.5981C-13.7553 29.9691 2.64905 38.6352 15.5685 52.1439L15.7731 52.3786C18.8535 55.9269 21.7572 59.9331 23.0564 64.5546C23.3012 65.4614 23.4585 66.3886 23.6153 67.3163C23.8769 68.8637 24.134 70.4138 24.8287 71.8459C24.8989 71.9907 24.9729 72.1328 25.0497 72.2721C24.8961 72.2812 24.7459 72.2847 24.5994 72.2822C22.5118 72.2467 20.7936 72.3718 23.8393 72.751C24.6467 72.7686 25.2906 72.8254 25.8156 72.9348C26.6693 73.1233 27.2247 73.4446 27.6556 73.9351C28.13 74.475 28.4505 75.2374 28.8336 76.3176L29.2214 77.4266L29.458 78.0967C9.25607 81.412 -10.137 87.7169 -29.5335 94.0219C-53.2476 101.73 -76.967 109.438 -102.17 111.705L-102.273 111.724C-103.024 111.855 -103.911 111.9 -104.612 111.583C-105.176 111.329 -105.635 110.857 -105.841 110.03C-106.279 108.754 -106.589 107.411 -106.894 106.087C-106.975 105.736 -107.056 105.387 -107.138 105.042L-107.305 104.344C-109.982 93.1423 -111.684 81.7746 -112.73 70.4268C-112.739 70.3374 -112.747 70.2481 -112.755 70.1592C-112.737 70.1559 -112.718 70.1526 -112.7 70.1494L-112.712 69.9291ZM-77.9831 174.414C-78.8196 174.389 -79.6575 174.34 -80.4952 174.267C-80.6058 174.258 -80.7164 174.248 -80.8269 174.237C-80.8127 174.121 -80.7987 174.005 -80.7851 173.888C-80.2086 168.976 -80.1546 163.871 -81.2854 158.867C-81.309 158.763 -81.3331 158.658 -81.3567 158.555C-81.2621 158.54 -87.2707 159.466 -98.4844 152.345C-98.8401 152.174 -100.035 151.043 -100.092 151.022C-100.106 150.958 -100.12 150.895 -100.134 150.832C-101.541 144.344 -102.249 137.763 -102.164 131.247C-102.163 131.16 -102.161 131.073 -102.16 130.987C-102.08 130.98 -102.001 130.975 -101.921 130.969C-99.148 130.777 -96.3366 131.081 -93.5223 131.387C-90.5103 131.715 -87.4949 132.045 -84.5206 131.748L-82.3173 131.679C-46.4841 130.532 -9.91342 128.641 23.2052 115.798C24.5794 115.714 27.3703 111.31 27.4604 111.207C27.9044 110.698 28.3816 110.224 28.8904 109.795C29.0622 109.649 29.2378 109.509 29.4167 109.374C29.3973 109.596 29.3804 109.835 29.3676 110.094C29.3149 111.154 29.3608 111.908 29.3968 112.501C29.5012 114.225 29.5609 114.689 27.1577 117.068C24.1008 119.643 22.3852 122.602 22.5379 122.487C22.5415 122.698 22.5442 122.909 22.5462 123.121C22.5861 127.421 22.2983 131.272 20.8732 134.398C19.6992 136.973 17.7582 139.062 14.5904 140.504L13.2231 141.235C4.49379 145.897 -4.39268 150.461 -14.0969 152.765C-21.9659 154.108 -29.2998 156.88 -35.9701 161.169C-48.7445 168.444 -62.7479 174.78 -77.9831 174.414Z" fill="#EEEEEE"/>
<path fill-rule="evenodd" clip-rule="evenodd" d="M23.1456 115.655C-1.41218 124.183 -30.0204 127.865 -56.2007 129.716L-57.8033 129.829L-61.1397 130.061C-62.0259 126.621 -62.2536 121.807 -62.7135 118.326C-63.4576 114.083 -63.8172 108.777 -64.9451 104.651L-65.0167 104.393L-65.0676 104.226L-64.2032 103.989C-37.994 96.783 -11.039 86.7617 15.415 80.3047C15.008 81.2809 14.9494 82.529 14.8329 83.5764C14.0948 90.6982 15.3789 98.995 16.6214 106.229C17.1424 110.359 19.642 113.711 23.1456 115.655Z" fill="#EEEEEE"/>
<path fill-rule="evenodd" clip-rule="evenodd" d="M38.7035 84.7552C39.6634 86.027 32.4497 84.4343 31.7764 84.4562L31.626 84.4289C30.1629 84.1576 28.4379 83.6481 27.3687 82.367C22.9061 83.1428 18.4754 84.0666 14.0981 85.1634L14.0971 85.7124C14.0733 93.8574 13.6877 102.069 15.3649 110.287C15.8575 114.73 18.9813 117.567 22.6364 119.229C23.0282 119.093 23.4184 118.956 23.8098 118.816C26.299 113.058 32.1982 108.547 38.5435 110.863C38.8147 110.962 38.8722 111.298 38.7583 111.476C38.7592 111.504 38.7413 111.53 38.7127 111.53L37.5234 111.49C34.9291 111.409 32.2526 111.429 30.1157 113.042C32.1191 119.131 27.8956 123.122 23.7748 125.854L23.7435 127.706C23.6196 134.795 23.2901 141.639 17.1015 145.368L16.2309 145.88C7.32157 151.1 -1.89489 155.999 -11.794 159.035C-17.0695 160.574 -22.6111 161.267 -27.6786 163.425C-37.0376 167.863 -45.6071 173.944 -55.4267 177.435C-58.8743 179.502 -85.9011 185.966 -86.7445 180.616C-86.4449 178.669 -86.2499 176.691 -86.1813 174.696C-86.358 175.01 -86.7066 175.135 -87.0827 175.091C-91.5995 174.564 -96.0982 174.68 -100.57 174.85C-111.357 175.62 -134.697 176.163 -133.067 158.167C-132.782 156.847 -130.773 157.622 -129.445 157.52C-129.462 157.418 -129.472 157.315 -129.478 157.211C-132.126 156.28 -134.628 154.93 -137.303 154.125C-139.6 153.444 -142.036 152.999 -144.275 152.013C-182.232 142.107 -221.303 138.891 -258.69 144.715C-260.931 145.047 -263.165 145.41 -265.391 145.805C-266.81 145.819 -272.517 147.875 -273.109 146.243C-273.231 146.183 -273.389 145.965 -273.445 145.834C-274.55 144.871 -274.38 143.194 -274.667 141.878C-275.408 137.218 -276.135 132.558 -276.828 127.893C-278.605 128.241 -280.469 128.083 -282.296 127.985C-281.919 131.392 -283.443 134.592 -284.373 137.651C-285.86 142.2 -287.495 146.68 -289.27 151.082C-291.347 155.163 -292.755 164.159 -298.894 161.311C-299.471 163.627 -303.388 160.585 -303.633 158.851C-304.915 147.551 -303.9 136.238 -303.149 125.121C-302.376 118.791 -302.609 111.925 -300.683 106.024C-300.197 104.351 -297.443 104.595 -296.977 106.398C-288.088 104.714 -287.568 110.181 -279.851 111.435C-280.09 110.547 -280.131 109.556 -280.071 108.654C-282.07 106.644 -268.176 106.891 -266.862 106.558C-252.714 105.974 -238.443 106.178 -224.532 104.001L-232.408 101.478C-250.79 95.5957 -269.205 89.8133 -287.813 85.3589C-288.936 85.0922 -289.214 83.8482 -288.834 83.0329C-289.142 79.663 -289.248 76.2985 -289.15 72.959C-290.598 72.948 -292.046 72.9355 -293.493 72.9229C-294.029 74.3818 -298.588 73.5777 -300.069 73.8168C-303.149 75.4894 -310.173 69.4387 -313.11 67.4728C-318.248 63.9632 -325.259 60.5512 -326.321 53.4331L-326.351 53.2163C-327.098 47.902 -327.448 42.5244 -327.376 37.2314L-327.358 36.6597C-327.308 35.1303 -327.183 33.4155 -326.046 32.4906C-325.088 31.7107 -323.727 31.7509 -322.822 32.6205C-319.024 31.2857 -316.093 35.82 -313.39 38.3129C-308.568 42.9783 -303.373 47.1883 -297.875 50.7912L-297.378 50.9914C-295.78 51.6377 -293.999 52.4146 -293.119 53.6961C-291.161 54.8759 -289.13 55.8707 -287.125 56.9284C-286.456 53.8129 -285.661 50.7397 -284.801 47.6983C-284.629 47.0929 -283.943 46.8769 -283.403 46.9613L-283.367 46.9675C-254.92 51.7804 -226.534 57.7641 -198.07 62.1799C-172.02 64.7062 -145.886 65.1648 -119.946 71.5525C-120.028 67.9868 -119.513 64.4154 -119.128 60.8987C-118.914 58.0827 -117.784 56.6205 -115.013 57.0708C-112.586 57.1706 -110.158 57.6093 -107.729 57.8046C-107.341 57.0425 -106.926 56.2976 -106.496 55.5714C-107.544 54.2942 -108.546 52.9734 -109.495 51.6131C-112.078 48.3676 -112.723 45.8119 -109.376 43.6222C-101.485 37.3481 -93.4436 31.2812 -85.1984 25.531C-77.2683 20.1869 -69.4982 13.6406 -59.835 11.9983C-42.3924 9.4855 -11.4498 31.1076 4.24604 41.9318C11.8998 47.9384 19.9168 55.3028 23.0994 65.1499C23.8733 68.1864 24.3097 71.4019 25.665 74.2736C26.9855 74.4617 28.254 75.0815 28.7475 76.5699C29.253 78.1363 29.9455 79.8097 30.1692 81.398C30.3043 81.754 30.4128 82.1758 30.3938 82.5579C33.1043 83.5494 36.0324 83.6008 38.7035 84.7552ZM-324.324 37.2588C-324.415 37.5352 -324.488 37.8206 -324.548 38.1121C-324.551 38.4681 -324.55 38.8223 -324.546 39.1763C-324.49 38.5324 -324.417 37.8927 -324.324 37.2588ZM-295.053 71.6276C-297.398 66.4807 -289.45 64.7449 -293.946 54.6174C-301.216 50.8653 -308.002 45.9098 -314.191 40.1869C-316.833 38.1693 -320.288 32.0345 -323.401 35.5263L-323.427 36.0443C-323.707 41.9168 -323.778 47.8697 -322.637 53.8007C-320.973 58.2525 -317.283 61.4999 -313.642 64.0999C-310.217 65.9513 -306.94 68.1444 -303.699 70.3871C-302.073 71.626 -300.183 71.6872 -298.371 71.6134C-297.264 71.6158 -296.159 71.6201 -295.053 71.6276ZM-284.152 130.024C-283.672 127.784 -284.638 125.54 -285.785 123.561C-287.597 120.175 -290.162 112.791 -288.296 109.526C-290.838 108.055 -293.521 107.629 -296.19 108.159L-296.358 108.17C-297.452 108.247 -298.316 108.448 -298.222 109.911L-298.685 114.093C-300.242 128.201 -301.676 142.442 -300.868 156.873C-298.221 160.634 -295.326 160.634 -293.801 156.474L-293.339 155.407C-289.802 147.221 -286.365 138.85 -284.152 130.024ZM-299.207 161.151C-299.272 161.114 -299.337 161.079 -299.401 161.043C-299.42 161.103 -299.452 161.16 -299.487 161.213C-299.388 161.209 -299.293 161.19 -299.207 161.151ZM-287.29 57.7145C-288.281 57.8052 -289.47 57.3117 -290.409 56.9682C-290.964 56.7663 -291.746 56.5664 -292.393 56.2363C-288.994 64.9124 -295.603 67.8368 -293.79 70.9428L-293.733 71.037L-293.731 71.037C-292.461 70.3418 -290.482 70.9743 -289.087 71.3577C-288.87 66.7274 -288.22 62.1648 -287.29 57.7145ZM-276.979 126.883L-277.348 124.36C-277.922 120.433 -278.481 116.506 -278.941 112.573C-281.475 113.081 -285.832 112.435 -288.056 110.681C-288.057 110.678 -288.058 110.674 -288.059 110.673C-288.164 115.877 -285.417 120.699 -283.05 125.241C-281.047 125.362 -278.926 126.137 -276.979 126.883ZM-286.846 110.272L-287.708 109.829C-287.77 109.9 -287.824 109.98 -287.869 110.064C-287.539 110.004 -287.192 110.122 -286.846 110.272ZM-287.173 57.1429C-287.53 57.0685 -287.889 56.9797 -288.249 56.8843C-287.888 57.0365 -287.54 57.212 -287.232 57.4295L-287.173 57.1429ZM-278.974 112.301L-279.01 112.025L-279.155 112.029C-279.246 112.097 -279.366 112.113 -279.473 112.036C-279.92 112.042 -280.37 112.038 -280.822 112.018L-280.295 112.091C-279.855 112.153 -279.415 112.219 -278.974 112.301ZM-279.242 108.78L-279.465 108.803C-279.411 109.157 -279.382 109.515 -279.324 109.867C-279.293 110.053 -279.241 110.243 -279.187 110.434C-279.237 109.879 -279.262 109.324 -279.242 108.78ZM-86.7089 164.83C-86.9173 164.663 -87.0534 164.476 -87.1341 164.284C-91.3974 164.445 -95.7016 163.66 -99.6985 161.217C-101.126 160.193 -102.679 159.642 -104.284 159.18C-111.671 156.716 -119.319 156.492 -126.599 157.763C-122.687 160.31 -118.271 161.215 -113.952 161.806C-113.735 161.839 -113.692 162.224 -113.897 162.274C-118.318 163.349 -122.949 161.958 -127.354 160.251C-128.252 159.117 -130.21 159.468 -131.398 159.372C-131.696 179.238 -97.8161 171.068 -86.8326 173.201C-86.5331 173.237 -86.2868 173.503 -86.16 173.81C-86.0966 170.83 -86.4213 167.824 -86.7089 164.83ZM-119.018 72.5367C-119.129 72.5652 -119.241 72.5905 -119.352 72.6109L-119.004 72.7051C-119.009 72.6501 -119.015 72.5934 -119.018 72.5367ZM29.301 80.4163L29.1773 80.0734C27.8847 76.4531 27.8633 75.2667 23.8074 75.2105C18.2302 74.517 13.0664 71.3807 7.60013 70.0883C5.66151 69.5621 2.29286 70.3211 3.13233 73.1278C3.49745 74.0337 2.45359 74.7894 1.77352 74.1194C-0.237504 72.139 -2.29595 70.2205 -4.34422 68.2902C-28.1485 77.2373 -51.0264 88.5596 -72.5925 102.116C-73.4486 102.654 -74.4318 101.174 -73.5752 100.641C-51.9265 87.1553 -29.0655 75.7585 -5.26943 66.6869L-4.54805 66.4128C-3.67889 66.0189 0.130936 70.4975 1.29601 71.2953C4.00358 62.7565 18.3465 74.001 24.6239 74.0867C23.3737 71.7184 23.3983 68.9799 22.7093 66.4545C21.3524 61.6111 18.2743 57.4303 15.0479 53.7326C0.760476 38.7566 -17.6603 29.5332 -35.0903 20.2696C-46.4959 13.9436 -59.8511 11.1873 -70.3419 18.3547C-83.8898 26.7226 -96.767 36.3234 -109.175 46.429C-110.304 47.53 -108.671 49.0985 -108.014 50.1896C-103.753 56.4434 -98.3276 61.8018 -92.2456 65.8514C-81.8876 55.0964 -70.2972 45.6321 -57.2629 38.7582L-57.1135 38.6645C-54.6607 37.1398 -51.6226 35.8933 -48.873 38.1811C-37.9795 46.2633 -26.587 53.3877 -15.0014 60.0598C-14.8848 60.1287 -14.9602 60.2955 -15.0787 60.2464C-16.6678 59.5762 -18.25 58.8667 -19.8225 58.1243C-41.4894 60.5515 -63.8061 61.1116 -85.7199 62.6292C-87.7707 64.5923 -89.7768 66.609 -91.7423 68.6697C-86.9412 74.9368 -83.4125 82.3883 -81.6796 90.1116L-81.5744 90.6111C-80.8756 93.8931 -79.6492 99.311 -83.5066 99.8888C-88.3777 99.5345 -86.9588 88.5625 -90.0962 85.1887C-91.5221 90.9645 -91.3423 97.5154 -93.8884 102.864C-94.585 104.576 -97.0473 107.971 -98.5179 104.799C-98.7931 103.401 -98.4665 101.934 -98.5224 100.529C-98.8217 102.124 -99.473 103.605 -100.653 104.576C-101.459 105.274 -103.238 105.828 -103.804 104.254C-104.325 100.636 -103.672 96.9885 -103.556 93.4015L-103.637 93.7228C-104.302 96.3595 -105.573 100.467 -108.564 97.0607C-110.637 93.6166 -108.316 89.2663 -107.976 85.7459C-107.086 76.2643 -113.391 69.5103 -108.594 59.6454C-110.61 59.4459 -112.629 59.1084 -114.643 59.0186L-114.759 59.0015C-116.619 58.7353 -117.243 59.0461 -117.337 61.207C-117.746 63.8234 -117.649 66.5441 -117.464 69.2402C-116.56 82.2144 -114.576 95.2348 -111.54 108.041C-110.868 109.875 -110.782 114.239 -108.829 114.943C-61.0813 111.704 -18.572 88.1759 28.0139 80.3947C28.4571 80.279 28.9201 80.2552 29.301 80.4163ZM29.5189 117.081C29.3582 116.049 29.0399 115.095 28.8237 114.071C27.7845 114.682 26.5741 117.743 25.9924 117.49C25.8644 117.713 25.7427 117.938 25.626 118.167C26.5875 117.819 27.5473 117.468 28.5088 117.116C4.43635 129.477 -25.4549 132.168 -53.0069 134.72C-66.9304 135.742 -80.9243 136.537 -94.9854 136.32C-98.7454 136.048 -102.625 135.101 -106.338 135.537C-106.429 142.267 -105.701 149.065 -104.254 155.765C-103.754 155.946 -103.257 156.154 -102.766 156.391C-90.3528 166.039 -76.9174 160.175 -65.332 154.874C-65.7917 151.947 -65.97 148.992 -66.3497 146.059C-68.8083 147.062 -71.4955 147.397 -74.0916 147.979C-75.9434 148.378 -77.7697 148.867 -79.5747 149.418L-80.1164 149.585C-80.7641 149.789 -81.4552 150.035 -82.1458 149.803C-82.8484 149.57 -83.2255 148.687 -82.7726 148.075C-81.7859 146.966 -80.1139 147.019 -78.7746 146.623L-78.3479 146.543C-74.4551 145.807 -70.436 144.88 -66.3779 145.807C-66.2954 144.745 -67.3959 141.892 -66.1178 141.693C-63.9722 141.657 -59.5354 139.786 -57.9024 141.623C-56.9854 142.718 -57.0051 144.661 -56.8006 145.978C-56.5644 147.499 -56.3328 149.02 -56.1619 150.542C-30.5685 137.299 -21.8434 140.39 5.21272 140.627L6.03826 140.633C6.2151 140.623 6.29629 140.934 6.12162 140.975C-4.67989 143.257 -16.1341 141.18 -27.0517 142.774C-47.8127 145.657 -64.1308 160.886 -84.7512 164.101C-83.5743 169.328 -83.63 174.664 -84.2336 179.796C-83.3718 179.871 -82.5098 179.921 -81.6509 179.948C-65.9308 180.331 -51.4818 173.777 -38.3102 166.268C-31.3754 161.804 -23.7516 158.92 -15.5886 157.527C-5.03815 155.021 4.57687 149.921 14.0528 144.843C21.2022 141.589 22.2115 135.094 22.1408 127.089C18.3823 129.93 14.6131 132.755 10.8403 135.576C9.67431 136.217 8.57636 134.426 7.7213 133.658C3.99382 143.634 -11.7649 138.479 -20.1926 138.997C-28.0445 138.56 -35.8872 138.577 -43.7507 137.583C-44.2964 137.51 -44.2457 136.608 -43.7459 136.581C-32.1765 136.267 -20.4895 137.344 -8.87457 137.575L-8.024 137.623C-2.50096 137.935 5.43856 138.145 6.08942 130.908C6.11983 129.933 7.42824 129.81 7.91596 130.573C8.56551 131.589 9.31677 132.472 10.179 133.256C14.0654 130.355 17.9553 127.459 21.863 124.586L22.0445 124.452C24.8085 122.411 28.0784 120.49 29.5189 117.081ZM-83.4481 97.8925C-81.4076 97.0206 -83.7058 89.3838 -84.1802 87.3401C-86.3811 79.8209 -90.3439 72.319 -95.742 66.7309C-96.075 66.386 -96.1201 65.9652 -96.0014 65.6277C-99.3227 63.1585 -102.409 60.2792 -105.197 57.0991C-105.557 57.7136 -105.903 58.3441 -106.228 58.9914C-106.222 59.2952 -106.333 59.574 -106.575 59.7065C-111.474 68.9257 -106.042 75.3703 -106.012 84.7561C-106.243 88.2695 -107.894 91.5586 -107.554 95.1578C-106.694 97.776 -105.959 95.4148 -105.715 94.1678C-104.826 91.3315 -104.051 88.445 -103.293 85.5531L-102.688 83.2392C-102.39 82.1022 -100.795 82.4294 -100.918 83.6917C-101.131 85.9014 -101.321 88.1167 -101.503 90.3333C-101.792 94.5938 -102.293 98.9638 -102.171 103.254C-99.8678 102.213 -98.4498 92.0314 -97.8359 89.0637C-97.4883 87.9385 -97.9524 84.7837 -96.34 85.0857C-94.8447 85.3223 -96.1206 88.7452 -96.1071 89.8703C-96.628 94.4836 -96.7195 99.1763 -96.8158 103.861C-92.814 98.6836 -93.3343 90.909 -91.9386 84.4353L-91.9228 84.2583C-91.815 83.1123 -91.5426 81.5379 -90.2518 82.4179C-85.435 85.5369 -86.1488 98.5457 -83.4481 97.8925ZM-59.9039 87.5126C-57.8787 89.7789 -61.3249 91.1622 -63.0132 91.0767C-64.387 91.2383 -65.7598 91.4084 -67.1349 91.559C-68.2362 91.4542 -72.0405 92.8655 -72.2754 91.1772C-72.805 83.777 -73.7629 76.4054 -74.2292 69.0003C-75.5934 69.0416 -76.9635 69.0197 -78.3193 69.1467C-80.0304 69.1703 -81.6584 69.8821 -83.3903 69.5666C-84.1929 69.3644 -84.434 68.2148 -83.8256 67.7399C-81.0808 66.2816 -77.225 67.0698 -74.1748 67.916C-73.9905 64.2747 -70.9388 63.6593 -68.0504 64.5092L-67.9012 64.4937C-67.0513 64.4085 -66.1324 64.3784 -65.3911 64.7705C-64.0557 65.8432 -64.5636 68.19 -64.2911 69.7261C-63.2886 74.4282 -62.5979 79.2292 -61.2545 83.8631C-60.8263 85.0596 -60.1049 86.2694 -59.9039 87.5126ZM-22.8192 56.665C-29.6666 53.2308 -36.2682 49.232 -42.7416 44.9541C-44.1243 44.0372 -45.4936 43.0939 -46.8558 42.1344L-47.016 42.0158C-49.623 40.0753 -51.8219 37.997 -54.7256 40.0331C-65.1926 45.4228 -74.7871 52.4742 -83.51 60.5546C-63.2733 59.3079 -43.0247 58.1179 -22.8192 56.665ZM-56.4708 150.69C-59.33 141.526 -56.0378 141.23 -65.2312 143.121C-64.8171 146.823 -64.3038 150.52 -63.921 154.225C-61.4276 153.069 -58.9505 151.875 -56.4708 150.69ZM-61.1418 88.6343C-63.2434 83.8709 -63.6295 78.7443 -64.4127 73.7165C-65.4014 73.7637 -65.0912 68.5783 -65.3439 67.5946L-65.3574 67.2498C-65.3921 66.4244 -65.4932 65.3652 -66.4244 65.3908C-67.9971 65.7129 -69.8698 64.7916 -71.3734 65.4618C-73.3981 66.3663 -72.7626 69.8879 -72.5738 71.8373C-72.2609 75.0512 -71.9523 78.2649 -71.6499 81.4792C-71.3785 84.3663 -71.1679 87.2654 -70.8462 90.1522C-68.9984 89.8232 -67.0808 89.6801 -65.2224 89.4532C-63.8961 89.2051 -62.2627 89.4304 -61.1418 88.6343ZM-65.5717 109.16C-65.5948 109.166 -65.618 109.171 -65.6422 109.179C-65.629 109.216 -65.6163 109.254 -65.604 109.293L-65.5861 109.352L-65.5846 109.352C-65.5817 109.289 -65.5777 109.223 -65.5717 109.16ZM20.4374 119.99C16.923 118.028 14.4157 114.65 13.8932 110.489C12.6454 103.197 12.2129 95.778 12.954 88.599C13.0694 87.5433 13.1299 86.285 13.539 85.3029C-13.0481 91.8169 -38.5309 101.694 -64.8701 108.971C-64.6997 113.523 -64.1269 118.046 -63.3939 122.586C-62.9307 126.095 -62.8567 129.653 -61.9683 133.121L-58.619 132.887C-31.8116 131.002 -4.71992 128.761 20.4374 119.99Z" fill="#030712"/>
<path fill-rule="evenodd" clip-rule="evenodd" d="M49.1694 123.456C49.9292 122.808 55.8014 121.097 56.6183 120.113C60.2011 120.051 72.7055 120.668 77.898 117.373C78.5762 118 83.9538 119.532 85.8557 119.019C90.1238 120.32 95.5049 110.733 96.8353 107.112C102.954 90.2825 91.1398 66.67 75.2312 59.7162C65.6516 55.5382 55.5227 55.8338 45.7366 55.6872C43.6478 55.7048 41.5249 55.5741 39.4461 55.6543C37.6583 56.0492 35.9879 57.7034 34.3246 56.5591C33.3264 55.2635 30.9607 52.6582 29.9448 53.8957C29.4961 54.6154 29.9392 55.7217 29.5182 56.5002C29.3668 56.8943 28.9624 57.1516 28.9507 57.6062C29.5894 61.7309 29.9513 64.6448 30.6012 68.7819C30.873 70.5935 30.503 73.3813 32.1487 75.4108C29.3235 82.8207 34.3228 79.5783 38.3183 80.9057C37.4713 85.4352 34.1277 94.5198 34.5576 99.2979C34.5846 103.193 37.0844 106.742 37.0717 110.573C36.0311 115.37 36.3392 120.935 39.5815 125.172C40.4244 126.228 39.743 127.464 40.6765 128.8C42.1544 131.409 48.0435 124.843 49.1694 123.456Z" fill="white"/>
<path fill-rule="evenodd" clip-rule="evenodd" d="M75.2312 59.7162C91.1398 66.67 102.954 90.2825 96.8353 107.112C95.5049 110.733 90.1238 120.32 85.8557 119.019C84.418 119.407 80.9939 118.626 79.1153 117.951C76.374 114.592 75.6504 104.513 76.9445 87.7124L76.9949 87.0674L73.227 81.4881L64.9108 79.4497C63.3019 77.9323 61.4153 76.7282 59.2511 75.8372C60.6389 74.2086 61.0926 72.2346 60.6124 69.9152C59.4571 67.6787 58.2944 66.0435 57.1244 65.0097C55.9777 63.9965 53.6872 64.0612 50.2526 65.2036L50.0409 65.2749L49.2153 70.3419L49.4943 72.6684L43.1196 79.3279L35.8852 80.5363C32.6441 80.4466 29.8853 81.3473 32.1487 75.4108C30.503 73.3813 30.873 70.5935 30.6012 68.7819C29.9513 64.6448 29.5894 61.7309 28.9507 57.6062C28.9624 57.1516 29.3668 56.8943 29.5182 56.5002C29.9392 55.7217 29.4961 54.6154 29.9448 53.8957C30.9607 52.6582 33.3264 55.2635 34.3246 56.5591C35.9879 57.7034 37.6583 56.0492 39.4461 55.6543C41.5249 55.5741 43.6478 55.7048 45.7366 55.6872L46.6183 55.6994C56.1299 55.8201 65.939 55.6635 75.2312 59.7162ZM53.0951 118.845L58.3104 120.113L57.5483 120.109C57.1942 120.108 56.8821 120.109 56.6183 120.113C55.8014 121.097 49.9292 122.808 49.1694 123.456L49.0555 123.594C47.6942 125.229 42.11 131.33 40.6765 128.8C39.743 127.464 40.4244 126.228 39.5815 125.172C36.3392 120.935 36.0311 115.37 37.0717 110.573C37.0735 110.015 37.0221 109.463 36.9327 108.915L37.553 108.665L42.2511 113.696L53.0951 118.845Z" fill="#B4B4B4"/>
<path fill-rule="evenodd" clip-rule="evenodd" d="M78.3457 116.933C78.6465 116.863 78.9316 117.319 78.6412 117.511C76.5318 118.901 73.9703 119.523 71.5229 120.079C69.0498 120.641 66.5471 121.045 63.9818 121.159C62.0085 121.246 59.9873 121.124 57.9668 120.829L57.8315 120.879C57.5831 120.972 57.335 121.065 57.0872 121.16L56.7156 121.301C56.0025 121.576 55.2844 121.837 54.5739 122.118C53.091 122.704 51.6071 123.319 50.1925 124.056C48.812 124.776 47.5008 125.638 46.2999 126.648C45.1421 127.622 44.2454 129.133 42.9145 129.838C42.4508 130.084 41.7614 129.772 41.7646 129.141C41.7148 129.102 41.6747 129.041 41.6578 128.956C41.5605 128.47 41.5428 128.011 41.5262 127.523C41.5169 127.25 41.856 127.238 41.9117 127.509C41.9542 127.715 41.9939 127.915 42.0286 128.116C42.6147 126.696 43.9656 125.648 45.0738 124.809C46.4977 123.73 48.0946 122.896 49.7275 122.204C51.4041 121.493 53.1398 120.968 54.9138 120.533C55.118 120.483 55.3226 120.435 55.5277 120.389C53.6725 119.992 51.8343 119.461 50.0515 118.817L49.8033 118.727C45.7467 117.239 41.5838 115.175 38.5914 111.594C38.4558 111.431 38.3255 111.265 38.1974 111.097L38.113 111.31C38.0295 111.523 37.95 111.732 37.8886 111.935C37.6612 112.69 37.5166 113.506 37.4413 114.31C37.2854 115.971 37.5938 117.698 37.7459 119.381C37.7957 119.933 37.0789 120.275 36.7664 119.72C35.7372 117.894 35.6684 115.882 36.0066 113.944C36.1742 112.985 36.4611 112.08 36.8762 111.238C37.0477 110.889 37.2624 110.484 37.5253 110.139C35.2076 106.532 34.4503 101.97 34.6318 97.8521C34.7262 95.7121 35.1168 93.6273 35.9899 91.7731C36.8294 89.9896 38.0079 88.6966 39.6213 87.7445C39.7643 87.66 39.9803 87.8718 39.8474 88.0117C37.0911 90.9157 36.3762 95.7622 36.6362 99.9924C36.7749 102.25 37.1596 104.549 38.0337 106.692C38.8632 108.724 40.1438 110.446 41.7425 111.865C44.9831 114.739 49.1196 116.38 53.0062 117.523C57.2345 118.767 61.5868 119.272 65.8533 119.25C68.0148 119.239 70.1757 119.07 72.2608 118.619C74.3286 118.173 76.2909 117.414 78.3457 116.933ZM91.6352 74.4452C91.7505 74.6392 91.5288 74.7872 91.3915 74.6241C88.5421 71.2387 85.0842 68.2408 81.5171 65.8432C74.9382 61.4215 67.6123 58.7023 60.2063 57.6013C55.8327 56.9513 51.466 56.9025 47.1422 57.146C45.4246 57.2426 43.7213 57.4147 42.0189 57.5989L40.1321 57.8056C39.253 57.9017 38.3802 57.9871 37.4845 57.98L37.2773 57.9766C36.2329 57.9512 35.2012 58.1021 34.1558 57.8551C33.6197 57.7283 33.442 56.9299 33.86 56.6226C33.9418 56.5625 34.0269 56.5059 34.113 56.4508C33.0192 55.8086 32.0088 54.9616 31.0833 54.0145C31.23 54.4783 31.3443 54.9478 31.3494 55.4341C31.3574 56.2049 31.1693 56.9037 30.7535 57.4087C31.0104 57.8849 31.2069 58.3771 31.2782 58.9489C31.3306 59.37 30.914 59.7029 30.5476 59.4752C29.8165 59.021 29.3587 58.3662 28.8943 57.6199C28.5652 57.0911 28.7146 56.4396 29.2139 56.2211L29.2443 56.2085C29.8794 55.9598 29.6299 54.773 29.4603 54.2151L29.4097 54.0509C29.0859 53.0125 28.7094 52.0009 28.844 50.9257C28.9309 50.2321 29.8534 50.0171 30.246 50.6679C31.4862 52.7236 33.0259 54.4306 34.5768 56.1861C35.421 55.754 36.3905 55.4902 37.2662 55.1952C38.4988 54.7799 39.8595 54.621 41.155 54.4391C43.618 54.0935 46.1268 53.9028 48.6331 53.8359C57.0982 53.6104 65.7683 54.8768 73.9083 58.6369C77.4741 60.2842 80.8562 62.4971 83.9325 65.1474C86.9908 67.782 89.5297 70.8978 91.6352 74.4452ZM49.8451 72.7576C49.9681 72.6452 50.1728 72.848 50.1024 72.9983C48.576 76.2519 45.944 78.5688 42.9329 80.113C39.9518 81.6416 36.1972 82.6523 32.7458 81.3845C32.1962 81.1827 31.875 80.1296 32.5794 79.9941C35.725 79.389 38.9242 79.1934 41.9112 78.0103C44.8723 76.8373 47.4831 74.9225 49.8451 72.7576ZM39.1491 70.6804C39.2077 70.6956 39.2101 70.7973 39.1486 70.7953C38.0093 70.7579 36.8594 70.7467 35.7173 70.6332C35.1622 70.578 34.6078 70.4983 34.0529 70.4336C33.4838 70.3672 32.9214 70.4016 32.4017 70.0635C31.7127 69.6155 31.7406 68.3556 32.616 68.3651C33.22 68.3716 33.6415 68.6595 34.2024 68.923C34.5621 69.092 34.9303 69.2373 35.2994 69.3767L35.8528 69.5839C36.9505 69.9956 38.0282 70.3886 39.1491 70.6804ZM41.4595 64.87C41.5507 64.886 41.5481 65.0438 41.459 65.0425C39.8498 65.0175 38.2451 64.8792 36.6324 64.6287C35.8974 64.5146 35.1635 64.3768 34.4305 64.2295L34.1165 64.1658C33.3441 64.0078 32.448 63.9208 31.728 63.5289C31.0085 63.1373 31.3764 62.1297 32.0667 62.2325C32.8727 62.3528 33.7288 62.853 34.5226 63.1327C35.2553 63.3908 35.9961 63.6127 36.7383 63.8182C38.3008 64.2508 39.8809 64.5943 41.4595 64.87ZM38.2907 75.6476L38.3298 75.6833C38.4908 75.8228 38.421 76.0423 38.2777 76.1171C37.6904 76.4235 36.941 76.3093 36.2792 76.3138L36.1349 76.3154C35.4651 76.3254 34.8407 76.3594 34.1843 76.0506C33.3873 75.6756 33.7252 74.5963 34.3815 74.4891C35.0976 74.372 35.8543 74.7221 36.5643 74.9399C37.0155 75.0782 37.479 75.174 37.8999 75.3944C37.8442 75.1945 37.7568 74.9961 37.689 74.814C37.6589 74.7325 37.7654 74.6973 37.8004 74.7749C37.935 75.0751 38.0498 75.4154 38.2907 75.6476ZM41.1582 118.093C41.2457 117.992 41.3922 118.108 41.3537 118.236C40.8899 119.774 40.6398 121.205 40.7023 122.88C40.7294 123.605 39.6926 123.649 39.6656 122.918C39.6002 121.171 40.0945 119.317 41.1582 118.093ZM56.575 64.0347C59.4693 65.2644 62.3999 69.3883 60.195 72.31C60.1539 72.3647 60.0438 72.3147 60.0636 72.2367C60.518 70.4538 59.4147 68.3333 58.0597 67.162C56.9848 66.2327 55.6836 65.6989 54.3715 65.6324C53.0583 65.566 51.7427 65.9573 50.8509 66.9407C50.383 67.4566 49.9641 68.1453 49.9951 68.936C50.0265 69.7343 50.6175 70.3786 50.8465 71.1258C51.019 71.6891 50.7455 72.1295 50.2419 72.2043C49.1304 72.3691 48.2274 71.1688 47.9163 70.1106C47.5818 68.9723 47.6574 67.7949 48.1058 66.7865C49.5539 63.5294 53.4181 62.6936 56.575 64.0347ZM86.9621 92.9449C87.5367 93.5053 87.1524 94.5097 86.406 94.3229C84.8175 93.9258 83.4052 93.0082 82.0464 91.9839C80.739 90.9983 79.4691 89.9376 78.2686 88.7946C77.0759 87.6592 75.9496 86.4192 74.9194 85.1102L74.6099 84.7159C73.8844 83.788 73.1453 82.8041 72.5773 81.7563C70.5262 81.5751 68.4725 81.1471 66.4729 80.458C64.5474 79.7943 62.6597 78.9287 60.8624 77.8615L60.6049 77.7083C58.9627 76.7273 57.1168 75.5428 56.0738 73.8127C56.0424 73.7608 56.0207 73.7084 56.0055 73.6565C55.813 74.0595 55.5513 74.4038 55.1417 74.618C54.6932 74.8526 54.1913 74.4161 53.9827 73.9874C53.5413 73.0808 53.9948 72.1633 54.4943 71.3148C54.4183 71.2825 54.3419 71.2523 54.2655 71.2267C53.7656 71.0599 53.2708 71.0239 52.8968 70.5594C52.7189 70.3387 52.8204 70.0547 52.974 69.9058C53.4782 69.4178 54.299 69.8727 54.8058 70.2662C54.8758 70.3207 54.943 70.3771 55.0079 70.4354C55.1036 70.2575 55.1865 70.0843 55.2461 69.9172C55.5968 68.9351 55.5083 67.502 54.4097 66.9852C54.3254 66.9456 54.3503 66.8103 54.4323 66.8072C55.7001 66.7611 56.559 68.1583 56.8004 69.3897C56.9767 70.2893 56.7925 71.1728 56.5535 71.9975L56.5081 72.1514C56.4163 72.4584 56.3327 72.7743 56.2333 73.0774C56.3442 73.0245 56.4815 73.0202 56.6268 73.0914C58.4029 73.9629 59.9484 75.5158 61.6283 76.6146C63.2949 77.7041 65.0493 78.6275 66.8523 79.3494C68.6024 80.0501 70.3847 80.5836 72.1796 80.9361C72.1372 80.7994 72.2305 80.64 72.3628 80.6449C72.6829 80.6563 72.9891 80.8157 73.1466 81.1099C74.8273 81.3774 76.5165 81.4828 78.1978 81.4099C78.3282 81.4042 78.3483 81.6115 78.224 81.6284C76.7454 81.8299 75.2363 81.8983 73.7199 81.8324C74.4654 82.5851 75.1839 83.3814 75.9432 84.1045C77.0858 85.1927 78.2509 86.2431 79.4499 87.2537C80.6731 88.2846 81.9295 89.2554 83.2415 90.137L83.9294 90.5983C84.9842 91.3076 86.0314 92.0377 86.9621 92.9449ZM97.5661 91.0787C98.6959 97.4594 98.7963 104.315 96.7449 110.162C95.6184 113.373 93.6369 115.896 91.0162 117.744C89.4512 118.848 87.6749 119.707 85.7873 120.078C83.8477 120.459 82.0424 120.165 80.3059 118.841C79.6163 118.315 80.2024 117.364 80.8569 117.475C84.8613 118.157 88.5589 116.669 91.5069 114.167C95.7847 110.535 97.1463 104.422 97.3725 98.5121C97.4835 95.6082 97.3238 92.6731 96.8803 89.7479C96.5421 87.5178 96.078 85.2344 95.1388 83.1412C95.0992 83.053 95.222 83.0126 95.2622 83.0976C96.4457 85.5921 97.0921 88.402 97.5661 91.0787ZM89.8709 100.893C90.1007 101.215 89.9536 101.625 89.6582 101.75C88.6168 102.19 87.0777 101.408 86.0682 100.884C84.9258 100.291 83.8311 99.5142 82.7937 98.7087C80.7189 97.0975 78.891 94.946 77.6181 92.5575C77.54 92.4112 77.6829 92.232 77.8149 92.3639C79.6342 94.1807 81.5475 95.818 83.6417 97.219C84.6708 97.9073 85.7372 98.4737 86.8275 99.0118C87.8032 99.4933 89.1826 99.9288 89.8709 100.893ZM89.8754 111.696C90.5709 111.881 90.6002 113.083 89.8702 113.061C87.9843 113.003 85.991 112.106 84.2799 111.115C82.518 110.094 80.8993 108.779 79.4549 107.255C79.3837 107.18 79.4665 107.07 79.5447 107.138C81.0607 108.442 82.7338 109.479 84.5089 110.227C86.2816 110.973 88.0666 111.213 89.8754 111.696ZM89.4653 105.729C90.0756 105.936 90.1637 107.035 89.4604 106.994C87.5274 106.88 85.3776 105.727 83.663 104.648C81.8438 103.503 80.184 102.016 78.7387 100.34C78.6846 100.277 78.7505 100.183 78.8122 100.244C80.3281 101.741 82.0154 102.939 83.8488 103.868C84.7843 104.342 85.7462 104.734 86.7274 105.034C87.6352 105.312 88.5668 105.424 89.4653 105.729Z" fill="#030712"/>
<path fill-rule="evenodd" clip-rule="evenodd" d="M47.1362 95.8114C48.7216 96.5814 49.63 100.768 49.8615 108.37L42.8841 109.598C41.3918 105.982 40.6273 103.081 40.5905 100.896C40.5354 97.6195 44.7581 94.6563 47.1362 95.8114Z" fill="#EEEEEE"/>
<path fill-rule="evenodd" clip-rule="evenodd" d="M43.3962 96.8402C44.0746 96.4228 46.9648 104.405 45.9024 106.953C45.1941 108.651 44.1979 109.264 42.9138 108.792C40.7314 101.849 40.8921 97.8651 43.3962 96.8402Z" fill="#030712"/>
<path fill-rule="evenodd" clip-rule="evenodd" d="M48.9005 94.513C51.1854 96.3622 51.7207 99.5993 51.5328 102.304C51.4121 104.04 51.0667 105.739 51.0753 107.497C51.0793 108.318 51.1509 109.145 51.2646 109.969C51.3762 110.777 51.6238 111.582 51.6936 112.389C51.7044 112.513 51.5608 112.565 51.4871 112.46C50.7302 111.377 50.35 109.895 50.07 108.593C49.9818 108.6 49.896 108.609 49.8243 108.625C49.6329 108.668 49.4425 108.708 49.2487 108.742C48.8116 108.817 48.3768 108.9 47.9414 108.983C47.0846 109.146 46.1894 109.22 45.3596 109.481L45.222 109.526C45.0482 109.586 44.8871 109.604 44.7385 109.592L44.767 109.644L44.8618 109.809L44.9228 109.918C45.1421 110.313 45.3128 110.691 45.3285 111.165C45.3405 111.526 45.1523 111.836 44.8006 111.851C43.222 111.918 42.4331 109.616 41.97 108.3L41.8349 107.914C41.2523 106.238 40.712 104.524 40.4224 102.789C39.9577 100.005 40.284 96.8445 42.1382 94.9431C43.8683 93.1689 46.7218 92.7498 48.9005 94.513ZM43.7968 107.425C46.1396 107.045 45.8846 103.853 44.2655 102.993C46.3185 102.508 43.6696 96.5618 43.3087 97.0478C41.9405 98.8899 42.1254 101.601 42.7001 103.917C42.9927 105.097 43.3792 106.273 43.7968 107.425ZM49.6021 103.658L49.6109 102.853L49.6126 102.536C49.6161 100.541 49.4718 98.3031 48.1063 96.7136C47.6079 96.1332 47.0113 95.8183 46.3989 95.7152C46.7959 97.2524 47.1439 98.7971 47.4655 100.347L47.5526 100.77C47.7509 101.74 47.9534 102.71 48.1601 103.679L48.3078 104.367L48.4572 105.056C48.51 105.298 48.7851 106.933 48.7708 107.243C49.0285 107.266 49.5829 107.289 49.8384 107.349C49.6613 106.187 49.6003 105.025 49.6013 103.863L49.6021 103.658ZM60.6785 106.952C60.1604 108.164 58.836 110.03 57.0406 108.813C55.4119 107.364 56.8087 105.138 57.4298 104.043C57.8915 103.033 56.2617 101.977 55.6938 102.92C51.3932 110.821 61.3088 113.595 61.5294 107.524C61.5538 106.855 60.8456 106.633 60.6785 106.952ZM58.1475 109.18L58.1828 109.236L58.1959 109.255C58.2197 109.287 58.215 109.266 58.1817 109.191L58.1561 109.135L58.1192 109.136C58.1292 109.151 58.1372 109.166 58.1475 109.18ZM62.1873 93.7581L62.2198 93.7567C63.1395 93.7248 65.3096 94.2309 65.4843 95.6741C65.5934 96.5757 64.2309 97.176 62.7695 97.3254L62.7099 97.3309C61.7992 97.4066 59.7645 97.2068 59.6053 95.8919C59.4445 94.5631 61.2571 93.8063 62.1873 93.7581ZM65.0476 114.995L65.0801 114.994C65.9994 114.958 68.0281 114.296 67.8534 112.853C67.747 111.974 66.3231 111.482 64.8762 111.421L64.7649 111.417C63.8732 111.392 61.8117 111.726 61.9744 113.071C62.1353 114.399 64.1141 115.016 65.0476 114.995ZM71.6075 94.2363C71.9143 95.408 71.7911 96.9792 70.7591 97.569C70.2993 97.8318 69.7231 97.5621 69.6213 96.9464C69.3754 95.4583 69.5179 94.1103 68.4706 92.8349C68.0198 92.2861 67.4327 91.8323 66.8562 91.4547L66.6368 91.3118L66.4561 91.1935C66.0597 90.9372 65.6336 90.6964 65.1996 90.7526C65.0711 90.7692 64.9303 90.6289 64.9188 90.4912C64.8474 89.6326 65.8222 89.5038 66.428 89.5946C67.5524 89.7636 68.6543 90.3053 69.5826 91.0783C70.5575 91.8902 71.2792 92.9829 71.6075 94.2363ZM72.2373 110.508C72.8144 111.302 73.1242 112.334 73.1688 113.288C73.2573 115.169 72.1756 118.371 70.0238 118.034C69.3602 117.931 68.8992 116.96 69.1887 116.368C69.4999 115.731 70.0824 115.557 70.5316 115.075C70.8904 114.69 71.1257 114.211 71.3137 113.7C71.4992 113.196 71.5786 112.618 71.5648 112.055L71.5617 111.961C71.5472 111.622 71.3336 109.917 70.7798 110.189C70.6714 110.242 70.5584 110.06 70.6346 109.971C71.1019 109.429 71.865 109.996 72.2373 110.508Z" fill="#030712"/>
<g filter="url(#filter0_d_157_157028)">
<rect width="110" height="54" rx="12" transform="matrix(-1 0 0 1 153 157.02)" fill="white" shape-rendering="crispEdges"/>
<rect x="-1.125" y="1.125" width="107.75" height="51.75" rx="10.875" transform="matrix(-1 0 0 1 150.75 157.02)" stroke="#030712" stroke-width="2.25" shape-rendering="crispEdges"/>
<path d="M54.3834 133.164L86 160.77H70.625L51.1422 136.259C49.4375 134.114 52.3198 131.362 54.3834 133.164Z" fill="white"/>
<path d="M86 158.145H83.75L54.5122 133.337C52.4102 131.553 49.5608 134.387 51.333 136.499L69.5 158.145H67.625" stroke="#030712" stroke-width="2.25"/>
<path d="M54.696 174.028C55.1333 173.526 55.6027 173.276 56.104 173.276C56.6053 173.276 56.904 173.66 57 174.428V174.476C57 174.86 56.7813 175.697 56.344 176.988L57.096 176.828C58.0133 176.828 58.5467 177.414 58.696 178.588V178.828C58.696 180.236 57.8107 181.521 56.04 182.684C55.464 182.908 55.048 183.02 54.792 183.02C53.928 183.02 53.3307 182.518 53 181.516C53.0213 181.398 53.1547 181.233 53.4 181.02C53.5173 176.198 53.6187 173.788 53.704 173.788C53.8853 173.606 54.0507 173.516 54.2 173.516C54.488 173.622 54.632 173.793 54.632 174.028H54.696ZM54.536 178.428H54.6C55.4747 176.774 55.9387 175.494 55.992 174.588V174.22H55.832C55.608 174.22 55.3093 174.822 54.936 176.028C54.6693 177.169 54.536 177.969 54.536 178.428ZM55.144 179.42L54.904 179.516L54.504 179.484V179.516L54.44 179.724V181.388L54.392 181.98L54.744 182.076C55.6507 182.076 56.5467 181.393 57.432 180.028C57.6773 179.42 57.8 178.918 57.8 178.524C57.8 178.033 57.5653 177.788 57.096 177.788H57.032C56.52 177.788 55.8907 178.332 55.144 179.42ZM62.2153 176.988C63.0046 176.988 63.6019 177.574 64.0073 178.748L64.0713 179.084C64.0713 180.225 63.5379 181.393 62.4713 182.588C62.0446 182.982 61.6126 183.18 61.1753 183.18C60.5353 183.18 60.0819 182.812 59.8153 182.076C59.7193 181.734 59.6713 181.436 59.6713 181.18V180.988C59.6713 179.302 60.2846 178.022 61.5113 177.148C61.7246 177.041 61.9593 176.988 62.2153 176.988ZM60.6153 181.148C60.6153 181.873 60.8019 182.236 61.1753 182.236C61.9539 182.236 62.5993 181.238 63.1113 179.244V178.94C62.9299 178.278 62.5939 177.948 62.1033 177.948C61.9113 177.948 61.8153 178.081 61.8153 178.348C61.8153 178.529 61.6019 178.673 61.1753 178.78C60.8019 179.409 60.6153 180.198 60.6153 181.148ZM67.6603 176.988C68.4496 176.988 69.0469 177.574 69.4523 178.748L69.5163 179.084C69.5163 180.225 68.9829 181.393 67.9163 182.588C67.4896 182.982 67.0576 183.18 66.6203 183.18C65.9803 183.18 65.5269 182.812 65.2603 182.076C65.1643 181.734 65.1163 181.436 65.1163 181.18V180.988C65.1163 179.302 65.7296 178.022 66.9563 177.148C67.1696 177.041 67.4043 176.988 67.6603 176.988ZM66.0603 181.148C66.0603 181.873 66.2469 182.236 66.6203 182.236C67.3989 182.236 68.0443 181.238 68.5563 179.244V178.94C68.3749 178.278 68.0389 177.948 67.5483 177.948C67.3563 177.948 67.2603 178.081 67.2603 178.348C67.2603 178.529 67.0469 178.673 66.6203 178.78C66.2469 179.409 66.0603 180.198 66.0603 181.148ZM71.3612 174.556H71.4572C71.5959 174.556 71.7292 174.673 71.8572 174.908L71.7932 175.996V176.604L71.8572 179.404L71.9052 179.564H71.9532C72.4119 179.137 72.8119 178.385 73.1532 177.308L73.5052 177.196C73.8039 177.238 73.9532 177.372 73.9532 177.596C73.9532 178.289 73.4572 179.222 72.4652 180.396V180.508C73.7772 182.033 74.6412 182.796 75.0572 182.796H75.1532L75.5532 182.556H75.6972C75.9212 182.556 76.0866 182.705 76.1932 183.004C76.1932 183.345 75.8146 183.58 75.0572 183.708C74.2999 183.708 73.3132 182.94 72.0972 181.404H71.9532L72.0012 182.268V183.1C71.9372 183.43 71.7719 183.596 71.5052 183.596C71.2066 183.532 71.0572 183.366 71.0572 183.1V183.004L70.9932 181.164C70.8759 181.164 70.7959 180.998 70.7532 180.668L70.9612 180.268L70.8652 176.668V175.964C70.8652 175.025 71.0306 174.556 71.3612 174.556ZM80.1594 176.54C80.4474 176.54 80.6447 177.025 80.7514 177.996C80.6447 178.262 80.4687 178.396 80.2234 178.396C80.0527 178.364 79.882 178.166 79.7114 177.804L79.4234 177.708C78.922 177.708 78.4687 178.038 78.0634 178.7V178.844C78.0634 179.004 78.8154 179.27 80.3194 179.644C80.9487 180.017 81.2634 180.47 81.2634 181.004C81.2634 181.878 80.5594 182.625 79.1514 183.244L78.5594 183.34C77.6634 183.244 77.2154 182.796 77.2154 181.996V181.948C77.2154 181.692 77.3807 181.542 77.7114 181.5C77.9674 181.5 78.138 181.766 78.2234 182.3L78.3514 182.396H78.6234C79.2314 182.396 79.7967 181.98 80.3194 181.148V180.94C80.3194 180.62 79.6207 180.321 78.2234 180.044C77.4874 179.745 77.1194 179.329 77.1194 178.796C77.1194 178.102 77.7007 177.452 78.8634 176.844C79.3754 176.78 79.8074 176.678 80.1594 176.54ZM91.5129 176.844C91.9822 176.844 92.2169 177.03 92.2169 177.404L92.0729 177.708L91.9769 180.636C91.9769 181.958 92.2435 182.78 92.7769 183.1L92.8089 183.34C92.7769 183.649 92.6329 183.804 92.3769 183.804H92.2809C91.4809 183.26 91.0809 182.428 91.0809 181.308H90.9689C90.5422 182.502 90.0249 183.1 89.4169 183.1C88.8515 182.94 88.5689 182.518 88.5689 181.836C88.5689 180.332 89.1715 178.833 90.3769 177.34C90.7822 177.009 91.1609 176.844 91.5129 176.844ZM89.5769 181.196L89.5129 181.644V181.948H89.6729C90.4729 179.953 90.8729 178.737 90.8729 178.3H90.8089C90.1902 178.993 89.7795 179.958 89.5769 181.196ZM95.6248 176.716C96.2968 176.716 96.6968 177.185 96.8248 178.124V178.268C96.8248 179.302 96.2914 180.252 95.2248 181.116C95.8434 181.724 96.9261 182.028 98.4728 182.028C98.7074 182.102 98.8248 182.268 98.8248 182.524C98.8248 182.812 98.6381 182.956 98.2648 182.956C97.2194 182.956 96.1208 182.689 94.9688 182.156V182.62C94.9688 183.718 94.7341 184.268 94.2648 184.268C93.9341 184.268 93.7688 183.633 93.7688 182.364V181.116L93.7208 180.668L93.8328 180.156L93.7208 178.62V178.556C93.7208 178.268 93.8701 178.07 94.1688 177.964C94.5848 177.132 95.0701 176.716 95.6248 176.716ZM94.8248 180.22C95.1341 180.22 95.4808 179.665 95.8648 178.556V177.868L95.6728 177.66H95.5288C95.0594 177.98 94.8248 178.833 94.8248 180.22ZM101.117 177.276C101.543 177.286 102.263 178.033 103.277 179.516L103.309 179.788C103.309 180.086 102.578 180.316 101.117 180.476L101.069 180.524V180.588C101.293 181.548 101.527 182.028 101.773 182.028H101.965C102.306 182.028 102.823 181.66 103.517 180.924H103.613C103.826 180.924 103.991 181.078 104.109 181.388C104.109 181.644 103.661 182.086 102.765 182.716C102.53 182.854 102.247 182.956 101.917 183.02C101.053 183.02 100.45 182.209 100.109 180.588C99.6178 180.513 99.3725 180.31 99.3725 179.98C99.3725 179.745 99.5538 179.59 99.9165 179.516V179.58L100.077 179.516V179.116C100.077 177.889 100.423 177.276 101.117 177.276ZM101.213 178.428H101.069L101.005 179.02V179.516H101.069C101.666 179.494 101.965 179.43 101.965 179.324C101.687 178.908 101.437 178.609 101.213 178.428ZM111.523 175.42C112.077 175.42 112.435 176.508 112.595 178.684L112.691 179.18C113.181 178.177 113.581 177.676 113.891 177.676C113.891 177.633 114.003 177.601 114.227 177.58H114.291C114.995 177.58 115.443 178.129 115.635 179.228V179.276C115.635 180.214 115.165 181.249 114.227 182.38C113.832 182.806 113.4 183.02 112.931 183.02C112.397 182.902 112.131 182.636 112.131 182.22L111.331 176.476L111.091 175.884C111.091 175.692 111.235 175.537 111.523 175.42ZM113.187 181.916H113.235C113.789 181.692 114.275 180.929 114.691 179.628V179.02C114.595 178.689 114.472 178.524 114.323 178.524H114.195C113.725 178.801 113.389 179.932 113.187 181.916ZM117.402 178.204L117.69 178.044C117.946 178.044 118.132 178.198 118.25 178.508C118.079 179.297 117.994 180.108 117.994 180.94C117.994 181.356 118.116 181.809 118.362 182.3H118.458C118.767 182.3 119.135 181.078 119.562 178.636C119.711 178.508 119.855 178.444 119.994 178.444C120.324 178.444 120.49 179.03 120.49 180.204C120.628 181.494 120.783 182.14 120.954 182.14L121.194 182.044C121.503 182.161 121.658 182.326 121.658 182.54C121.466 182.945 121.199 183.148 120.858 183.148C120.474 183.148 120.106 182.764 119.754 181.996C119.327 182.892 118.895 183.34 118.458 183.34C117.807 183.34 117.354 182.662 117.098 181.308L117.05 180.796V180.636C117.05 179.782 117.167 178.972 117.402 178.204ZM122.508 174.684C122.913 174.769 123.116 174.95 123.116 175.228C123.009 175.526 122.839 175.676 122.604 175.676C122.209 175.601 122.012 175.404 122.012 175.084C122.119 174.817 122.284 174.684 122.508 174.684ZM123.116 176.924C123.287 176.924 123.431 177.078 123.548 177.388L123.404 178.524V179.276C123.404 180.15 123.553 181.297 123.852 182.716C123.745 182.918 123.564 183.02 123.308 183.02C122.871 183.02 122.583 181.74 122.444 179.18V178.62C122.444 177.489 122.668 176.924 123.116 176.924ZM125.907 174.204C126.206 174.31 126.355 174.476 126.355 174.7L126.515 180.796V182.764C126.515 183.126 126.361 183.308 126.051 183.308H125.843C125.651 183.18 125.555 183.03 125.555 182.86V181.004L125.411 174.668C125.411 174.401 125.577 174.246 125.907 174.204ZM129.875 173.308C130.174 173.372 130.323 173.521 130.323 173.756L130.227 174.46V174.668C130.227 175.137 130.28 175.633 130.387 176.156H130.419C131.656 175.782 132.424 175.596 132.723 175.596C133.032 175.681 133.187 175.836 133.187 176.06C133.187 176.422 132.819 176.604 132.083 176.604L130.419 177.196C130.419 178.636 130.574 180.593 130.883 183.068C130.819 183.356 130.664 183.5 130.419 183.5H130.387C130.014 183.5 129.827 183.02 129.827 182.06C129.688 181.345 129.571 179.793 129.475 177.404H129.187C128.184 177.34 127.683 177.105 127.683 176.7C127.683 176.582 127.795 176.438 128.019 176.268H128.179L128.915 176.46H129.427L129.283 174.46C129.283 173.692 129.48 173.308 129.875 173.308ZM135.851 180.108C136.405 180.353 136.736 181.105 136.843 182.364C136.843 183.526 136.389 184.593 135.483 185.564L135.291 185.66C134.96 185.553 134.795 185.388 134.795 185.164L135.451 184.108C135.717 183.564 135.851 183.014 135.851 182.46V181.868C135.851 181.601 135.685 181.201 135.355 180.668V180.604C135.429 180.273 135.595 180.108 135.851 180.108ZM55.384 189.628C56.2907 189.702 56.744 190.145 56.744 190.956L56.776 191.164L56.744 193.66C56.744 193.948 56.9093 194.337 57.24 194.828V194.86C57.1547 195.169 57 195.324 56.776 195.324C56.1147 195.046 55.784 194.46 55.784 193.564V193.356L55.736 193.324L55.784 193.26V193.228L55.832 191.02C55.832 190.71 55.6987 190.556 55.432 190.556H55.24C54.7067 190.769 54.44 191.937 54.44 194.06C54.44 194.796 54.2533 195.164 53.88 195.164C53.592 195.164 53.4427 194.982 53.432 194.62V193.02C53.432 190.95 53.6133 189.916 53.976 189.916L54.136 189.868L54.472 189.916C54.76 189.724 55.064 189.628 55.384 189.628ZM60.6215 188.988C61.4108 188.988 62.0082 189.574 62.4135 190.748L62.4775 191.084C62.4775 192.225 61.9442 193.393 60.8775 194.588C60.4508 194.982 60.0188 195.18 59.5815 195.18C58.9415 195.18 58.4882 194.812 58.2215 194.076C58.1255 193.734 58.0775 193.436 58.0775 193.18V192.988C58.0775 191.302 58.6908 190.022 59.9175 189.148C60.1308 189.041 60.3655 188.988 60.6215 188.988ZM59.0215 193.148C59.0215 193.873 59.2082 194.236 59.5815 194.236C60.3602 194.236 61.0055 193.238 61.5175 191.244V190.94C61.3362 190.278 61.0002 189.948 60.5095 189.948C60.3175 189.948 60.2215 190.081 60.2215 190.348C60.2215 190.529 60.0082 190.673 59.5815 190.78C59.2082 191.409 59.0215 192.198 59.0215 193.148ZM65.3945 185.308C65.6932 185.372 65.8425 185.521 65.8425 185.756L65.7465 186.46V186.668C65.7465 187.137 65.7998 187.633 65.9065 188.156H65.9385C67.1758 187.782 67.9438 187.596 68.2425 187.596C68.5518 187.681 68.7065 187.836 68.7065 188.06C68.7065 188.422 68.3385 188.604 67.6025 188.604L65.9385 189.196C65.9385 190.636 66.0932 192.593 66.4025 195.068C66.3385 195.356 66.1838 195.5 65.9385 195.5H65.9065C65.5332 195.5 65.3465 195.02 65.3465 194.06C65.2078 193.345 65.0905 191.793 64.9945 189.404H64.7065C63.7038 189.34 63.2025 189.105 63.2025 188.7C63.2025 188.582 63.3145 188.438 63.5385 188.268H63.6985L64.4345 188.46H64.9465L64.8025 186.46C64.8025 185.692 64.9998 185.308 65.3945 185.308ZM77.9773 188.716C78.6493 188.716 79.0493 189.185 79.1773 190.124V190.268C79.1773 191.302 78.6439 192.252 77.5773 193.116C78.1959 193.724 79.2786 194.028 80.8253 194.028C81.0599 194.102 81.1773 194.268 81.1773 194.524C81.1773 194.812 80.9906 194.956 80.6173 194.956C79.5719 194.956 78.4733 194.689 77.3213 194.156V194.62C77.3213 195.718 77.0866 196.268 76.6173 196.268C76.2866 196.268 76.1213 195.633 76.1213 194.364V193.116L76.0733 192.668L76.1853 192.156L76.0733 190.62V190.556C76.0733 190.268 76.2226 190.07 76.5213 189.964C76.9373 189.132 77.4226 188.716 77.9773 188.716ZM77.1773 192.22C77.4866 192.22 77.8333 191.665 78.2173 190.556V189.868L78.0253 189.66H77.8813C77.4119 189.98 77.1773 190.833 77.1773 192.22ZM82.669 190.204L82.957 190.044C83.213 190.044 83.3997 190.198 83.517 190.508C83.3463 191.297 83.261 192.108 83.261 192.94C83.261 193.356 83.3837 193.809 83.629 194.3H83.725C84.0343 194.3 84.4023 193.078 84.829 190.636C84.9783 190.508 85.1223 190.444 85.261 190.444C85.5917 190.444 85.757 191.03 85.757 192.204C85.8957 193.494 86.0503 194.14 86.221 194.14L86.461 194.044C86.7703 194.161 86.925 194.326 86.925 194.54C86.733 194.945 86.4663 195.148 86.125 195.148C85.741 195.148 85.373 194.764 85.021 193.996C84.5943 194.892 84.1623 195.34 83.725 195.34C83.0743 195.34 82.621 194.662 82.365 193.308L82.317 192.796V192.636C82.317 191.782 82.4343 190.972 82.669 190.204ZM90.7994 188.54C91.0874 188.54 91.2847 189.025 91.3914 189.996C91.2847 190.262 91.1087 190.396 90.8634 190.396C90.6927 190.364 90.522 190.166 90.3514 189.804L90.0634 189.708C89.562 189.708 89.1087 190.038 88.7034 190.7V190.844C88.7034 191.004 89.4554 191.27 90.9594 191.644C91.5887 192.017 91.9034 192.47 91.9034 193.004C91.9034 193.878 91.1994 194.625 89.7914 195.244L89.1994 195.34C88.3034 195.244 87.8554 194.796 87.8554 193.996V193.948C87.8554 193.692 88.0207 193.542 88.3514 193.5C88.6074 193.5 88.778 193.766 88.8634 194.3L88.9914 194.396H89.2634C89.8714 194.396 90.4367 193.98 90.9594 193.148V192.94C90.9594 192.62 90.2607 192.321 88.8634 192.044C88.1274 191.745 87.7594 191.329 87.7594 190.796C87.7594 190.102 88.3407 189.452 89.5034 188.844C90.0154 188.78 90.4474 188.678 90.7994 188.54ZM93.4816 186.188C93.7803 186.188 93.9296 186.55 93.9296 187.276L94.1216 190.028H94.1856L94.9856 189.724C95.8816 189.724 96.4256 190.641 96.6176 192.476C96.6923 192.998 96.7296 193.766 96.7296 194.78V196.076C96.7296 196.481 96.5803 196.684 96.2816 196.684H96.2176C95.9296 196.641 95.7856 196.486 95.7856 196.22V194.716C95.7856 192.305 95.551 190.972 95.0816 190.716H94.9856C94.6656 190.716 94.431 191.206 94.2816 192.188V193.084C94.2816 194.684 94.1483 195.484 93.8816 195.484L93.5776 195.516C93.279 195.516 93.1296 195.073 93.1296 194.188C93.1616 193.249 93.2256 192.481 93.3216 191.884L92.9856 186.62C92.9856 186.342 93.151 186.198 93.4816 186.188ZM99.2415 189.276C99.6682 189.286 100.388 190.033 101.402 191.516L101.434 191.788C101.434 192.086 100.703 192.316 99.2415 192.476L99.1935 192.524V192.588C99.4175 193.548 99.6522 194.028 99.8975 194.028H100.09C100.431 194.028 100.948 193.66 101.642 192.924H101.738C101.951 192.924 102.116 193.078 102.234 193.388C102.234 193.644 101.786 194.086 100.89 194.716C100.655 194.854 100.372 194.956 100.042 195.02C99.1775 195.02 98.5748 194.209 98.2335 192.588C97.7428 192.513 97.4975 192.31 97.4975 191.98C97.4975 191.745 97.6788 191.59 98.0415 191.516V191.58L98.2015 191.516V191.116C98.2015 189.889 98.5482 189.276 99.2415 189.276ZM99.3375 190.428H99.1935L99.1295 191.02V191.516H99.1935C99.7908 191.494 100.09 191.43 100.09 191.324C99.8122 190.908 99.5615 190.609 99.3375 190.428ZM106.928 186.236C107.11 186.236 107.275 186.406 107.424 186.748L106.72 191.196V192.444C106.72 193.745 106.923 194.396 107.328 194.396C107.595 194.524 107.728 194.694 107.728 194.908C107.728 195.153 107.515 195.297 107.088 195.34C106.619 195.34 106.251 194.908 105.984 194.044H105.824C105.43 194.908 104.95 195.34 104.384 195.34C103.723 195.34 103.323 194.838 103.184 193.836C103.184 192.673 103.963 191.441 105.52 190.14C105.83 190.14 105.984 189.708 105.984 188.844C106.219 187.105 106.534 186.236 106.928 186.236ZM104.128 193.708V194.14L104.384 194.396H104.48C104.822 194.396 105.222 193.366 105.68 191.308H105.584C104.614 192.278 104.128 193.078 104.128 193.708ZM109.909 194.076C110.133 194.076 110.267 194.257 110.309 194.62C110.245 194.993 110.059 195.18 109.749 195.18C109.536 195.18 109.387 194.993 109.301 194.62C109.429 194.257 109.632 194.076 109.909 194.076Z" fill="#030712"/>
</g>
<defs>
<filter id="filter0_d_157_157028" x="40" y="131.634" width="116" height="85.386" filterUnits="userSpaceOnUse" color-interpolation-filters="sRGB">
<feFlood flood-opacity="0" result="BackgroundImageFix"/>
<feColorMatrix in="SourceAlpha" type="matrix" values="0 0 0 0 0 0 0 0 0 0 0 0 0 0 0 0 0 0 127 0" result="hardAlpha"/>
<feOffset dy="3"/>
<feGaussianBlur stdDeviation="1.5"/>
<feComposite in2="hardAlpha" operator="out"/>
<feColorMatrix type="matrix" values="0 0 0 0 0 0 0 0 0 0 0 0 0 0 0 0 0 0 0.16 0"/>
<feBlend mode="normal" in2="BackgroundImageFix" result="effect1_dropShadow_157_157028"/>
<feBlend mode="normal" in="SourceGraphic" in2="effect1_dropShadow_157_157028" result="shape"/>
</filter>
</defs>
</svg>
